<?xml version="1.0" standalone="no"?>
<!DOCTYPE svg PUBLIC "-//W3C//DTD SVG 20010904//EN"
 "http://www.w3.org/TR/2001/REC-SVG-20010904/DTD/svg10.dtd">
<svg version="1.0" xmlns="http://www.w3.org/2000/svg"
 width="48.000000pt" height="48.000000pt" viewBox="0 0 48.000000 48.000000"
 preserveAspectRatio="xMidYMid meet">

<g transform="translate(0.000000,48.000000) scale(0.100000,-0.100000)"
fill="#000000" stroke="none">
<path d="M260 441 c0 -17 5 -31 10 -31 6 0 10 11 10 24 0 14 -4 28 -10 31 -6
4 -10 -7 -10 -24z"/>
<path d="M444 426 c-16 -13 -26 -27 -23 -31 4 -3 20 5 35 19 16 13 26 27 23
31 -4 3 -20 -5 -35 -19z"/>
<path d="M80 412 c0 -12 39 -46 45 -41 6 7 -24 49 -36 49 -5 0 -9 -4 -9 -8z"/>
<path d="M275 374 c-16 -2 -49 -7 -72 -10 -24 -3 -43 -9 -43 -13 0 -4 24 -4
53 0 75 11 165 11 186 -1 15 -7 19 -28 25 -116 5 -75 3 -110 -5 -120 -9 -11
-42 -14 -140 -14 l-129 0 -1 78 c0 42 -4 100 -9 127 -6 40 -8 26 -9 -71 -1
-85 3 -125 12 -138 11 -16 29 -18 139 -17 136 1 153 4 163 29 10 26 -6 229
-19 247 -12 17 -94 27 -151 19z"/>
<path d="M240 316 c-6 -8 -10 -25 -8 -38 4 -30 52 -38 62 -11 6 14 5 16 -5 6
-21 -21 -41 -15 -37 10 2 17 10 22 33 22 37 0 44 -28 20 -75 -23 -45 -12 -48
14 -5 24 40 27 75 9 93 -17 17 -73 15 -88 -2z"/>
<path d="M39 282 c-31 -9 -39 -36 -39 -128 0 -51 4 -104 10 -118 l10 -26 149
0 c142 0 201 9 201 32 0 5 -10 3 -22 -4 -31 -17 -308 -13 -320 5 -4 6 -8 46
-8 88 0 75 0 76 24 72 13 -3 32 0 43 6 15 8 10 10 -25 11 -39 0 -43 2 -40 23
2 18 11 23 48 27 42 5 43 6 14 11 -17 3 -37 3 -45 1z"/>
<path d="M285 150 c-4 -6 -3 -16 3 -22 6 -6 12 -6 17 2 4 6 3 16 -3 22 -6 6
-12 6 -17 -2z"/>
</g>
</svg>
